<svg width="100%" height="100%" viewBox="0 0 40 32" fill="none" xmlns="http://www.w3.org/2000/svg" class="logoIcon--axSOm normalLogo--LkePn"><mask id="whiteBgLogo_svg__a" maskUnits="userSpaceOnUse" x="13" y="0" width="27" height="26" style="mask-type: luminance;"><path fill-rule="evenodd" clip-rule="evenodd" d="M40 0H13.333v12.8h13.334v12.8H40V0Z" fill="#fff"></path></mask><g mask="url(#whiteBgLogo_svg__a)"><path fill-rule="evenodd" clip-rule="evenodd" d="M13.333 12.8c0-7.07 5.97-12.8 13.334-12.8S40 5.73 40 12.8s-5.97 12.8-13.333 12.8v-.007l.003-.14.005-3.703-.001-2.539c.326-.038.634-.066.92-.086l.177-.013c4.261-.354 5.139-2.875 5.37-4.24 0 0 .12-.627.021-.97-.063-.215-.32-.73-.472-.905l-.053-.09-.03-.056a.896.896 0 0 1-.103-.313c-.26-3.707-3.134-4.59-4.882-4.9l-.144-.024a7.728 7.728 0 0 0-.07-.01l-.136-.02-.067-.008-.128-.014-.062-.007-.12-.01-.113-.008-.106-.006-.098-.004-.091-.003-.121-.001-.101.001-.08.003c-.248 0-.364-.423-.432-.938l-.016-.13-.015-.133-.006-.067-.018-.202-.041-.517-.016-.176-.011-.108-.013-.1c-.024-.174-.054-.3-.1-.345-.042-.042-.133-.065-.26-.064l-.058.002a1.39 1.39 0 0 0-.062.005l-.066.008a2.05 2.05 0 0 0-.144.027l-.077.018a2.49 2.49 0 0 0-.04.01l-.083.024a3.059 3.059 0 0 0-.086.027l-.09.031-.091.035a3.853 3.853 0 0 0-.047.02l-.096.04c-.13.057-.265.125-.406.205l-.106.062a5.354 5.354 0 0 0-.548.38l-.112.092a6.394 6.394 0 0 0-1.057 1.127l-.084.116-.084.119-.129.185-.13.193-.46.69-.198.29-.155.222-.16.225-.11.15-.113.152-.117.152-.12.153c-.648.813-1.678 1.911-2.92 2.492-1.61.752-3.975.801-3.975.801Zm17.334-.533c0 .041-.002.082-.004.122-.023-.251-.137-.442-.274-.442-.154 0-.278.238-.278.533 0 .295.124.533.278.533a.18.18 0 0 0 .126-.058c-.09.168-.213.272-.348.272-.277 0-.5-.43-.5-.96s.223-.96.5-.96c.276 0 .5.43.5.96Z" fill="#0025FF"></path></g><path fill-rule="evenodd" clip-rule="evenodd" d="M13.333 32c7.29 0 13.214-5.617 13.332-12.588l.002-.212c-3.862 0-6.87 3.435-10.131 5.503-.856.542-1.91.897-3.203.897-3.682 0-6.666-2.865-6.666-6.4s2.984-6.4 6.666-6.4V6.4C5.97 6.4 0 12.13 0 19.2S5.97 32 13.333 32Z" fill="#00E9FF"></path></svg>