<svg width="100%" height="100%" viewBox="0 0 67 14" xmlns="http://www.w3.org/2000/svg" xmlns:xlink="http://www.w3.org/1999/xlink" class="shulexTextIcon--YccDY"><defs><linearGradient x1="23.953%" y1="27.526%" x2="50%" y2="100%" id="shulexText_svg__a"><stop stop-color="#00B8FF" stop-opacity="0" offset="0%"></stop><stop stop-color="#00B2FF" offset="100%"></stop></linearGradient><path id="shulexText_svg__b" d="M0 0h11.333v5.6H5.667v5.6H0z"></path></defs><g fill="none" fill-rule="evenodd"><path d="M58.309 2.04h-5.802a.412.412 0 0 0-.412.413v9.135c0 .228.184.412.412.412h5.802a.412.412 0 0 0 .412-.412v-.836a.412.412 0 0 0-.412-.412h-4.558V7.85h4.144a.412.412 0 0 0 .412-.411v-.837a.412.412 0 0 0-.412-.411H53.75V3.7h4.558a.412.412 0 0 0 .412-.412v-.836a.412.412 0 0 0-.412-.412Zm-28.368 0h-.833a.412.412 0 0 0-.411.413v9.135c0 .228.184.412.411.412h.833a.412.412 0 0 0 .412-.412V7.85h3.727v3.738c0 .228.185.412.412.412h.833a.412.412 0 0 0 .412-.412V2.453a.412.412 0 0 0-.412-.412h-.833a.412.412 0 0 0-.412.412V6.19h-3.727V2.453a.412.412 0 0 0-.412-.412Zm36.63 0h-.85c-.212 0-.39.161-.41.373-.011.112-.022.199-.032.262a5.206 5.206 0 0 1-1.407 2.802l-.069.069-.32.316-.32-.316a5.18 5.18 0 0 1-1.507-3.133.412.412 0 0 0-.411-.372h-.85a.412.412 0 0 0-.41.439 7.038 7.038 0 0 0 1.987 4.42l.075.074.155.152-.215.213a6.824 6.824 0 0 0-1.947 3.843 6.325 6.325 0 0 0-.04.371.412.412 0 0 0 .41.447h.842c.21 0 .386-.156.41-.363.024-.202.048-.356.072-.462a4.696 4.696 0 0 1 1.212-2.253l.068-.068.47-.463 1.282-1.263.227-.228a7.04 7.04 0 0 0 1.99-4.425.412.412 0 0 0-.412-.434Zm-24 .382-.001 6.05a1.865 1.865 0 0 1-1.864 1.868 1.865 1.865 0 0 1-1.862-1.812l-.001-.055v-6.03a.412.412 0 0 0-.402-.412L37.208 2a.02.02 0 0 0-.021.02V8.473A3.524 3.524 0 0 0 40.706 12a3.523 3.523 0 0 0 3.519-3.46V2.443a.412.412 0 0 0-.401-.412l-.832-.021a.412.412 0 0 0-.422.412Zm4.35-.381h-.833a.412.412 0 0 0-.412.412v9.135c0 .228.184.412.412.412h4.353a.412.412 0 0 0 .411-.412v-.836a.412.412 0 0 0-.411-.412h-3.109V2.453a.412.412 0 0 0-.411-.412Z" fill="#0025FF"></path><path d="m43.483 6.391.47.463a4.698 4.698 0 0 1 1.316 2.5c.012.067.025.16.038.279a.412.412 0 0 0 .407.367h.849a.412.412 0 0 0 .408-.447 6.832 6.832 0 0 0-1.915-4.138l-.076-.076-.214-.211-1.283 1.263Z" fill="url(#shulexText_svg__a)" fill-rule="nonzero" transform="translate(20 2)"></path><path d="M20 4.886c0-1.571 1.508-2.845 3.624-2.845 1.857 0 3.246.982 3.558 2.285l.016.079a.411.411 0 0 1-.408.481h-.914a.412.412 0 0 1-.395-.306 1.023 1.023 0 0 0-.093-.248c-.291-.51-.972-.868-1.764-.868-1.058 0-1.916.637-1.916 1.422 0 .772.826 1.4 1.857 1.422l.059.001c2.115 0 3.623 1.274 3.623 2.846 0 1.571-1.508 2.845-3.623 2.845-1.735 0-3.062-.857-3.483-2.032a2.039 2.039 0 0 1-.08-.329.412.412 0 0 1 .403-.484h.92c.182 0 .342.118.396.29.062.212.139.37.228.474.34.396.937.658 1.616.658 1.057 0 1.915-.637 1.915-1.422 0-.772-.826-1.4-1.857-1.423h-.058C21.508 7.732 20 6.458 20 4.886Z" fill="#0025FF"></path><g transform="matrix(-1 0 0 1 17 0)"><mask id="shulexText_svg__c" fill="#fff"><use xlink:href="#shulexText_svg__b"></use></mask><path d="M5.667 0c3.13 0 5.666 2.507 5.666 5.6-.67-.014-1.233-.131-1.689-.35-.528-.255-.966-.735-1.241-1.09l-.1-.134-.049-.066-.046-.066-.068-.099-.066-.097-.084-.127-.196-.301-.11-.166-.036-.052-.035-.05a2.766 2.766 0 0 0-.45-.494l-.047-.04a2.272 2.272 0 0 0-.233-.166l-.045-.027a1.88 1.88 0 0 0-.173-.09l-.04-.018a1.592 1.592 0 0 0-.02-.008l-.04-.016-.037-.013-.037-.012-.035-.01a1.114 1.114 0 0 0-.017-.005l-.033-.008a.853.853 0 0 0-.061-.012l-.028-.003-.027-.002-.024-.001c-.054 0-.093.01-.11.028-.02.02-.033.075-.043.151l-.006.044-.004.047-.007.077-.018.226-.007.088-.003.03-.006.058-.007.057c-.029.225-.078.41-.184.41l-.034-.001h-.133l-.041.003-.046.002-.048.004-.05.004-.027.003-.054.007-.028.003-.058.008-.03.005-.061.01c-.743.136-1.964.523-2.075 2.144a.4.4 0 0 1-.044.137l-.013.025-.022.04a1.568 1.568 0 0 0-.201.395c-.028.1-.025.242.009.424.098.598.471 1.7 2.282 1.855l.076.006c.12.009.252.021.39.038v1.11l.002 1.621.001.06v.004C2.538 11.2 0 8.693 0 5.6 0 2.507 2.537 0 5.667 0ZM4.194 4.947c.12 0 .217.188.217.42 0 .232-.097.42-.217.42-.06 0-.114-.047-.154-.123l.02.017.038.012c.066 0 .12-.104.12-.233s-.054-.233-.12-.233c-.067 0-.121.104-.121.233v-.009l.002-.025-.002-.03v-.03c0-.231.097-.42.217-.42Z" fill="#0025FF" mask="url(#shulexText_svg__c)"></path></g><path d="M5.667 14c3.098 0 5.616-2.457 5.666-5.507V8.4h-.113a4.144 4.144 0 0 0-3.384 1.752c-.494.699-1.217 1.048-2.17 1.048-1.564 0-2.833-1.254-2.833-2.8 0-1.546 1.269-2.8 2.834-2.8V2.8C2.537 2.8 0 5.307 0 8.4 0 11.493 2.537 14 5.667 14Z" fill="#00E9FF"></path></g></svg>