<svg width="100%" height="100%" viewBox="0 0 20 20" fill="none" xmlns="http://www.w3.org/2000/svg" class="actionIcon--mtS3u"><path d="M12.5 14.167V15a2.5 2.5 0 0 1-5 0v-.833m5 0h-5m5 0h2.992c.319 0 .479 0 .608-.044a.832.832 0 0 0 .523-.523c.043-.13.043-.29.043-.612 0-.14 0-.21-.01-.278a.833.833 0 0 0-.146-.35c-.04-.056-.09-.106-.189-.205l-.324-.325a.559.559 0 0 1-.164-.395V8.333a5.833 5.833 0 0 0-11.666 0v3.102c0 .149-.06.29-.164.395l-.325.325c-.1.1-.149.15-.188.204a.832.832 0 0 0-.146.351c-.01.067-.01.138-.01.278 0 .322 0 .482.043.612.083.246.277.44.523.523.13.044.29.044.608.044H7.5" stroke="#667085" stroke-width="1.667" stroke-linecap="round" stroke-linejoin="round"></path></svg>