<svg width="100%" height="100%" viewBox="0 0 20 20" fill="none" xmlns="http://www.w3.org/2000/svg" class="actionIcon--mtS3u"><path d="m11.294 17.493 4.413-2.603c.471-.277.706-.416.878-.61a1.66 1.66 0 0 0 .336-.595c.079-.248.079-.526.079-1.079V7.394c0-.554 0-.83-.079-1.079a1.66 1.66 0 0 0-.336-.595c-.17-.193-.405-.331-.872-.607l-4.42-2.606c-.471-.278-.706-.417-.957-.47a1.584 1.584 0 0 0-.672 0c-.25.053-.486.192-.958.47L4.292 5.11c-.47.277-.706.416-.877.61a1.66 1.66 0 0 0-.336.595C3 6.564 3 6.842 3 7.397v5.206c0 .555 0 .833.08 1.082.07.22.184.422.335.594.172.195.407.334.878.611l4.413 2.603c.472.278.708.417.958.47.222.049.45.049.672 0 .25-.053.487-.192.958-.47Z" stroke="#344054" stroke-width="1.5" stroke-linecap="round" stroke-linejoin="round"></path><path d="M7.575 10c0 1.368 1.086 2.477 2.425 2.477 1.34 0 2.425-1.11 2.425-2.477 0-1.368-1.086-2.477-2.425-2.477-1.34 0-2.425 1.11-2.425 2.477Z" stroke="#344054" stroke-width="1.5" stroke-linecap="round" stroke-linejoin="round"></path></svg>